<?xml version="1.0" standalone="no"?>
<!DOCTYPE svg PUBLIC "-//W3C//DTD SVG 20010904//EN"
 "http://www.w3.org/TR/2001/REC-SVG-20010904/DTD/svg10.dtd">
<svg version="1.0" xmlns="http://www.w3.org/2000/svg"
 width="414.000000pt" height="207.000000pt" viewBox="0 0 414.000000 207.000000"
 preserveAspectRatio="xMidYMid meet">

<g transform="translate(0.000000,207.000000) scale(0.100000,-0.100000)"
fill="#000000" stroke="none">
<path d="M2469 1725 c-56 -20 -100 -45 -95 -53 2 -4 7 -50 11 -102 3 -52 10
-142 15 -200 5 -60 5 -111 0 -121 -5 -9 -6 -19 -3 -23 3 -3 1 -6 -5 -6 -13 0
-73 -110 -66 -121 3 -5 1 -9 -5 -9 -6 0 -15 -9 -21 -20 -13 -24 -16 -24 125
35 55 24 111 46 125 50 23 7 24 6 11 -9 -8 -10 -52 -45 -98 -78 -46 -33 -81
-63 -79 -65 6 -6 309 16 315 23 5 5 -26 444 -38 529 l-6 50 -60 0 c-58 0 -60
1 -63 28 -2 15 -8 27 -13 27 -5 0 -9 5 -9 11 0 5 5 7 12 3 8 -5 9 -2 5 10 -4
10 -7 26 -7 37 0 22 -3 22 -51 4z m71 -558 c0 -7 -49 -1 -56 6 -5 4 0 5 10 1
14 -5 17 -4 11 5 -6 10 -3 11 14 2 11 -7 21 -13 21 -14z"/>
<path d="M1520 1521 c-41 -7 -40 28 -14 -323 9 -136 20 -252 24 -258 4 -7 57
-6 171 3 l164 12 -110 59 c-60 32 -111 59 -112 60 -1 1 -9 94 -18 206 -9 113
-18 215 -21 228 -5 23 -16 25 -84 13z"/>
<path d="M2884 894 c-16 -24 -16 -34 0 -167 11 -93 21 -147 31 -156 13 -14 15
-8 15 44 l1 60 48 -54 c67 -75 81 -61 25 24 -52 77 -53 60 5 158 19 31 20 37
7 37 -21 0 -54 -33 -68 -68 -10 -25 -11 -26 -18 -7 -5 11 -9 50 -9 88 -1 72
-10 82 -37 41z"/>
<path d="M2363 870 c-28 -11 -29 -35 -8 -192 18 -129 31 -178 48 -178 7 0 29
14 49 30 43 36 55 71 64 187 8 95 4 102 -68 139 -52 26 -53 27 -85 14z m82
-72 c27 -21 27 -23 23 -109 -3 -68 -8 -93 -23 -109 -11 -12 -22 -17 -28 -11
-13 13 -22 251 -10 251 6 0 23 -10 38 -22z"/>
<path d="M2109 838 c-7 -12 -12 -41 -11 -63 5 -158 51 -362 52 -229 0 28 3 54
6 57 4 4 25 -16 47 -43 22 -28 46 -50 54 -50 19 0 17 4 -33 80 l-45 69 37 56
c20 30 35 57 33 60 -13 13 -49 -11 -69 -46 -12 -22 -23 -39 -25 -37 -2 2 -13
127 -15 161 0 15 -20 6 -31 -15z"/>
<path d="M2731 787 c-12 -24 -21 -50 -21 -59 0 -8 24 -33 52 -54 52 -38 69
-67 51 -85 -5 -5 -24 4 -46 22 -32 27 -37 28 -37 11 0 -20 30 -52 67 -71 18
-9 25 -7 42 15 34 43 27 71 -29 126 -27 27 -50 53 -50 57 0 5 9 19 19 32 l19
24 11 -28 c6 -16 11 -32 11 -37 0 -16 22 -23 31 -9 26 41 -16 99 -71 99 -23 0
-32 -8 -49 -43z"/>
<path d="M1547 806 c-9 -22 3 -48 19 -42 19 7 22 0 44 -130 24 -143 24 -144 5
-144 -8 0 -15 -9 -15 -20 0 -16 7 -20 31 -20 63 0 139 64 139 117 0 28 -6 37
-36 55 l-35 21 35 29 c25 21 36 38 36 57 0 53 -34 71 -161 86 -46 6 -57 4 -62
-9z m154 -56 c10 -6 19 -17 19 -25 0 -16 -48 -75 -61 -75 -5 0 -9 25 -9 55 0
59 9 67 51 45z m31 -178 c9 -10 4 -21 -19 -44 -17 -17 -36 -27 -42 -24 -6 4
-11 32 -11 62 l0 55 31 -18 c17 -10 35 -24 41 -31z"/>
<path d="M2593 775 c-21 -9 -35 -23 -39 -40 -9 -37 1 -174 14 -187 5 -5 30
-12 54 -15 51 -6 63 4 74 61 6 35 5 38 -10 33 -10 -4 -20 -7 -22 -7 -2 0 -4
-11 -4 -25 0 -50 -49 -41 -65 13 -7 24 -6 24 62 42 l41 10 -5 43 c-6 51 -27
87 -51 87 -9 -1 -31 -7 -49 -15z m58 -62 c7 -19 3 -25 -21 -38 -41 -21 -50
-19 -50 13 0 52 54 71 71 25z"/>
<path d="M1968 739 c-15 -8 -18 -24 -18 -85 0 -103 7 -114 76 -114 39 0 56 4
60 15 7 17 -14 152 -28 178 -10 19 -62 23 -90 6z m67 -32 c4 -13 5 -46 3 -73
-3 -41 -6 -49 -23 -49 -17 0 -20 8 -23 59 -2 32 -1 65 2 72 9 22 35 16 41 -9z"/>
<path d="M1811 724 c-23 -16 -23 -21 -17 -97 4 -44 9 -84 12 -89 3 -4 33 -8
66 -8 l61 0 -6 73 c-3 39 -11 87 -17 105 -10 27 -17 32 -44 32 -17 0 -42 -7
-55 -16z m73 -69 c7 -72 4 -85 -24 -85 -15 0 -19 11 -25 60 -5 42 -3 65 5 75
25 30 37 16 44 -50z"/>
<path d="M1269 659 c-19 -19 -21 -30 -17 -111 3 -102 14 -118 79 -118 41 0 54
11 64 58 6 28 4 32 -14 32 -15 0 -21 -6 -21 -22 0 -35 -12 -47 -36 -38 -26 10
-41 59 -22 71 7 4 30 11 50 14 36 6 38 9 38 45 0 21 -4 50 -10 64 -8 22 -16
26 -50 26 -27 0 -47 -7 -61 -21z m79 -50 c2 -19 -3 -28 -23 -37 -38 -18 -45
-15 -45 18 0 50 62 68 68 19z"/>
<path d="M1495 605 c-5 -2 -27 -6 -47 -10 -66 -11 -41 -25 42 -25 73 0 80 2
80 20 0 16 -6 20 -32 19 -18 0 -37 -2 -43 -4z"/>
<path d="M2501 371 c-1 -27 2 -32 11 -23 9 9 15 9 27 0 13 -10 14 -10 4 1 -6
7 -9 21 -5 30 5 14 3 14 -10 3 -14 -11 -17 -10 -21 5 -3 10 -5 2 -6 -16z"/>
<path d="M2151 346 c-1 -31 2 -37 11 -28 9 9 15 9 27 -1 14 -10 14 -10 3 5 -8
10 -10 23 -6 30 6 10 5 10 -8 0 -14 -11 -17 -10 -21 10 -3 14 -5 8 -6 -16z"/>
<path d="M2271 352 c-1 -31 1 -33 26 -30 29 3 43 32 25 50 -6 6 -8 0 -5 -16 4
-21 1 -26 -15 -26 -15 0 -22 8 -25 28 -4 25 -4 24 -6 -6z"/>
<path d="M2386 366 c3 -9 11 -16 16 -16 13 0 5 23 -10 28 -7 2 -10 -2 -6 -12z"/>
<path d="M2435 370 c-3 -6 2 -13 11 -17 16 -6 16 -7 -2 -14 -18 -7 -17 -8 3
-8 31 -1 40 19 12 26 -22 6 -22 7 -3 14 16 6 16 8 2 8 -9 1 -20 -4 -23 -9z"/>
<path d="M2360 350 c0 -11 4 -20 9 -20 5 0 7 9 4 20 -3 11 -7 20 -9 20 -2 0
-4 -9 -4 -20z"/>
<path d="M1910 325 c0 -30 3 -35 24 -35 32 0 39 12 26 44 -6 16 -17 26 -30 26
-16 0 -20 -7 -20 -35z m40 15 c0 -5 -7 -10 -15 -10 -8 0 -15 5 -15 10 0 6 7
10 15 10 8 0 15 -4 15 -10z m10 -30 c0 -5 -9 -10 -20 -10 -11 0 -20 5 -20 10
0 6 9 10 20 10 11 0 20 -4 20 -10z"/>
<path d="M2000 335 c-15 -18 -5 -35 20 -35 10 0 22 5 25 10 7 11 -12 40 -25
40 -4 0 -13 -7 -20 -15z m35 -5 c3 -6 -1 -13 -10 -16 -19 -8 -30 0 -20 15 8
14 22 14 30 1z"/>
<path d="M2073 334 c-3 -8 -1 -20 5 -26 16 -16 42 -2 42 22 0 24 -38 28 -47 4z
m37 -9 c0 -8 -7 -15 -15 -15 -8 0 -15 7 -15 15 0 8 7 15 15 15 8 0 15 -7 15
-15z"/>
<path d="M1784 315 c-8 -19 3 -35 24 -34 14 0 15 2 2 7 -24 11 -24 35 0 29 11
-3 18 -1 14 4 -8 14 -34 11 -40 -6z"/>
</g>
</svg>
